<mxfile host="app.diagrams.net" modified="2023-12-29T06:05:12.378Z" agent="Mozilla/5.0 (Windows NT 10.0; Win64; x64) AppleWebKit/537.36 (KHTML, like Gecko) Chrome/120.0.0.0 Safari/537.36" etag="kvCgdW3E1PlO0drNPgBu" version="22.1.15" type="github">
  <diagram name="Page-1" id="XL-B12niI-cdZz2wsxcw">
    <mxGraphModel dx="1434" dy="780" grid="1" gridSize="10" guides="1" tooltips="1" connect="1" arrows="1" fold="1" page="1" pageScale="1" pageWidth="850" pageHeight="1100" math="0" shadow="0">
      <root>
        <mxCell id="0" />
        <mxCell id="1" parent="0" />
        <mxCell id="2Q7LOCC0LEsp8IKtEkvK-1" value="Community Doctor" style="shape=umlActor;verticalLabelPosition=bottom;verticalAlign=top;html=1;outlineConnect=0;" vertex="1" parent="1">
          <mxGeometry x="660" y="130" width="30" height="60" as="geometry" />
        </mxCell>
        <mxCell id="2Q7LOCC0LEsp8IKtEkvK-2" value="Hospital Doctor" style="shape=umlActor;verticalLabelPosition=bottom;verticalAlign=top;html=1;outlineConnect=0;" vertex="1" parent="1">
          <mxGeometry x="660" y="340" width="30" height="60" as="geometry" />
        </mxCell>
        <mxCell id="2Q7LOCC0LEsp8IKtEkvK-3" value="Patient" style="shape=umlActor;verticalLabelPosition=bottom;verticalAlign=top;html=1;outlineConnect=0;" vertex="1" parent="1">
          <mxGeometry x="180" y="230" width="30" height="60" as="geometry" />
        </mxCell>
        <mxCell id="2Q7LOCC0LEsp8IKtEkvK-4" value="" style="rounded=0;whiteSpace=wrap;html=1;" vertex="1" parent="1">
          <mxGeometry x="280" y="80" width="280" height="510" as="geometry" />
        </mxCell>
        <mxCell id="2Q7LOCC0LEsp8IKtEkvK-5" value="Refer" style="ellipse;whiteSpace=wrap;html=1;" vertex="1" parent="1">
          <mxGeometry x="350" y="120" width="140" height="70" as="geometry" />
        </mxCell>
        <mxCell id="2Q7LOCC0LEsp8IKtEkvK-6" value="Admission Episode" style="ellipse;whiteSpace=wrap;html=1;" vertex="1" parent="1">
          <mxGeometry x="350" y="210" width="140" height="70" as="geometry" />
        </mxCell>
        <mxCell id="2Q7LOCC0LEsp8IKtEkvK-7" value="Diagnosis" style="ellipse;whiteSpace=wrap;html=1;" vertex="1" parent="1">
          <mxGeometry x="350" y="300" width="140" height="70" as="geometry" />
        </mxCell>
        <mxCell id="2Q7LOCC0LEsp8IKtEkvK-8" value="Treatment" style="ellipse;whiteSpace=wrap;html=1;" vertex="1" parent="1">
          <mxGeometry x="355" y="390" width="140" height="70" as="geometry" />
        </mxCell>
        <mxCell id="2Q7LOCC0LEsp8IKtEkvK-9" value="Discharge" style="ellipse;whiteSpace=wrap;html=1;" vertex="1" parent="1">
          <mxGeometry x="355" y="490" width="140" height="70" as="geometry" />
        </mxCell>
        <mxCell id="2Q7LOCC0LEsp8IKtEkvK-10" value="" style="endArrow=none;html=1;rounded=0;" edge="1" parent="1" source="2Q7LOCC0LEsp8IKtEkvK-5">
          <mxGeometry width="50" height="50" relative="1" as="geometry">
            <mxPoint x="610" y="200" as="sourcePoint" />
            <mxPoint x="660" y="150" as="targetPoint" />
          </mxGeometry>
        </mxCell>
        <mxCell id="2Q7LOCC0LEsp8IKtEkvK-11" value="" style="endArrow=none;html=1;rounded=0;entryX=0;entryY=0.3333333333333333;entryDx=0;entryDy=0;entryPerimeter=0;exitX=1;exitY=0.5;exitDx=0;exitDy=0;" edge="1" parent="1" source="2Q7LOCC0LEsp8IKtEkvK-6" target="2Q7LOCC0LEsp8IKtEkvK-2">
          <mxGeometry width="50" height="50" relative="1" as="geometry">
            <mxPoint x="495" y="324" as="sourcePoint" />
            <mxPoint x="665" y="320" as="targetPoint" />
          </mxGeometry>
        </mxCell>
        <mxCell id="2Q7LOCC0LEsp8IKtEkvK-12" value="" style="endArrow=none;html=1;rounded=0;entryX=0;entryY=0.3333333333333333;entryDx=0;entryDy=0;entryPerimeter=0;exitX=1;exitY=0.5;exitDx=0;exitDy=0;" edge="1" parent="1" source="2Q7LOCC0LEsp8IKtEkvK-9" target="2Q7LOCC0LEsp8IKtEkvK-2">
          <mxGeometry width="50" height="50" relative="1" as="geometry">
            <mxPoint x="500" y="255" as="sourcePoint" />
            <mxPoint x="670" y="370" as="targetPoint" />
          </mxGeometry>
        </mxCell>
        <mxCell id="2Q7LOCC0LEsp8IKtEkvK-13" value="" style="endArrow=none;html=1;rounded=0;exitX=1;exitY=0.5;exitDx=0;exitDy=0;" edge="1" parent="1" source="2Q7LOCC0LEsp8IKtEkvK-7">
          <mxGeometry width="50" height="50" relative="1" as="geometry">
            <mxPoint x="500" y="255" as="sourcePoint" />
            <mxPoint x="660" y="360" as="targetPoint" />
          </mxGeometry>
        </mxCell>
        <mxCell id="2Q7LOCC0LEsp8IKtEkvK-14" value="" style="endArrow=none;html=1;rounded=0;exitX=1;exitY=0.5;exitDx=0;exitDy=0;" edge="1" parent="1" source="2Q7LOCC0LEsp8IKtEkvK-8">
          <mxGeometry width="50" height="50" relative="1" as="geometry">
            <mxPoint x="500" y="345" as="sourcePoint" />
            <mxPoint x="660" y="360" as="targetPoint" />
          </mxGeometry>
        </mxCell>
        <mxCell id="2Q7LOCC0LEsp8IKtEkvK-15" value="" style="endArrow=none;html=1;rounded=0;exitX=1;exitY=0.3333333333333333;exitDx=0;exitDy=0;exitPerimeter=0;entryX=0;entryY=0.5;entryDx=0;entryDy=0;" edge="1" parent="1" source="2Q7LOCC0LEsp8IKtEkvK-3" target="2Q7LOCC0LEsp8IKtEkvK-5">
          <mxGeometry width="50" height="50" relative="1" as="geometry">
            <mxPoint x="310" y="290" as="sourcePoint" />
            <mxPoint x="360" y="240" as="targetPoint" />
          </mxGeometry>
        </mxCell>
        <mxCell id="2Q7LOCC0LEsp8IKtEkvK-16" value="" style="endArrow=none;html=1;rounded=0;" edge="1" parent="1" target="2Q7LOCC0LEsp8IKtEkvK-6">
          <mxGeometry width="50" height="50" relative="1" as="geometry">
            <mxPoint x="210" y="250" as="sourcePoint" />
            <mxPoint x="360" y="165" as="targetPoint" />
          </mxGeometry>
        </mxCell>
        <mxCell id="2Q7LOCC0LEsp8IKtEkvK-17" value="" style="endArrow=none;html=1;rounded=0;entryX=0;entryY=0.5;entryDx=0;entryDy=0;" edge="1" parent="1" target="2Q7LOCC0LEsp8IKtEkvK-7">
          <mxGeometry width="50" height="50" relative="1" as="geometry">
            <mxPoint x="210" y="250" as="sourcePoint" />
            <mxPoint x="360" y="257" as="targetPoint" />
          </mxGeometry>
        </mxCell>
        <mxCell id="2Q7LOCC0LEsp8IKtEkvK-18" value="" style="endArrow=none;html=1;rounded=0;entryX=0;entryY=0.5;entryDx=0;entryDy=0;" edge="1" parent="1" target="2Q7LOCC0LEsp8IKtEkvK-8">
          <mxGeometry width="50" height="50" relative="1" as="geometry">
            <mxPoint x="210" y="250" as="sourcePoint" />
            <mxPoint x="360" y="345" as="targetPoint" />
          </mxGeometry>
        </mxCell>
        <mxCell id="2Q7LOCC0LEsp8IKtEkvK-19" value="" style="endArrow=none;html=1;rounded=0;entryX=0;entryY=0.5;entryDx=0;entryDy=0;" edge="1" parent="1" target="2Q7LOCC0LEsp8IKtEkvK-9">
          <mxGeometry width="50" height="50" relative="1" as="geometry">
            <mxPoint x="210" y="250" as="sourcePoint" />
            <mxPoint x="365" y="435" as="targetPoint" />
          </mxGeometry>
        </mxCell>
        <mxCell id="2Q7LOCC0LEsp8IKtEkvK-20" value="Use Case for Hospital Management" style="text;strokeColor=none;align=center;fillColor=none;html=1;verticalAlign=middle;whiteSpace=wrap;rounded=0;" vertex="1" parent="1">
          <mxGeometry x="310" y="20" width="220" height="30" as="geometry" />
        </mxCell>
      </root>
    </mxGraphModel>
  </diagram>
</mxfile>
